# xmcd
#
# Track frame offsets:
#	150
#	11768
#	32412
#	55363
#	69443
#	84413
#	113520
#	130310
#	149510
#	162825
#	184913
#	200655
#	225893
#	251413
#
# Disc length: 3626 seconds
# Revision: 3
# Processed by: cddbd v1.5.2PL0 Copyright (c) Steve Scherf et al.
# Submitted via: dBpowerAMP V12.0
#
DISCID=b60e280e
DTITLE=Lyle Lovett - Live in Texas '95
DYEAR=1999
DGENRE=Country
TTITLE0=Penguins
TTITLE1=I've Been to Memphis
TTITLE2=That's Right (You're Not from Texas)
TTITLE3=Nobody Knows Me
TTITLE4=If I Had a Boat
TTITLE5=North Dakota
TTITLE6=She's No Lady
TTITLE7=Here I Am
TTITLE8=What Do You Do
TTITLE9=Wild Women Don't Get the Blues
TTITLE10=M-O-N-E-Y
TTITLE11=You Can't Resist It
TTITLE12=Church
TTITLE13=Closing Time
EXTD=
EXTT0=
EXTT1=
EXTT2=
EXTT3=
EXTT4=
EXTT5=
EXTT6=
EXTT7=
EXTT8=
EXTT9=
EXTT10=
EXTT11=
EXTT12=
EXTT13=
PLAYORDER=
